<svg xmlns="http://www.w3.org/2000/svg" width="1366" height="768" viewBox="0 0 1366 768">
  <defs>
    <style>
      .cls-1 {
        fill: #333;
      }

      .cls-1, .cls-2 {
        fill-rule: evenodd;
      }

      .cls-2 {
        fill: #c33;
        mix-blend-mode: darken;
      }
    </style>
  </defs>
  <g id="Artboard_1" data-name="Artboard 1">
    <g>
      <path id="Homestud" class="cls-1" d="M185.856,243.131H163.427v82.325H60.488V243.131H38.059V434.878H60.488V345.163H163.427v89.715h22.429V243.131Zm50.089,79.992q11.148-15.3,32.412-15.3,21.907,0,32.6,14.974t10.7,41.033q0,25.669-10.825,40.838t-32.088,15.169q-21.522,0-32.735-15.233T224.8,364.091Q224.8,338.422,235.945,323.123Zm80.77-12.9q-17.376-20.547-47.84-20.549-30.987,0-48.747,20.484t-17.762,53.674q0,32.543,17.7,53.284t47.645,20.744q31.116,0,48.747-20.549T334.087,363.7Q334.087,330.773,316.715,310.223ZM548.93,434.878v-91.53q0-26.576-11.085-40.126t-34.81-13.548q-32.024,0-47.58,25.281a40.667,40.667,0,0,0-3.241-6.936,33.334,33.334,0,0,0-5.445-6.742,36.431,36.431,0,0,0-7.973-5.9,45.581,45.581,0,0,0-11.15-4.083,61.824,61.824,0,0,0-14.585-1.621,54.109,54.109,0,0,0-27.1,6.742q-11.929,6.743-18.41,16.594l-2.723-20.354h-18.15q0,8.819.259,142.222h21.651v-76.1a187.053,187.053,0,0,1,1.167-21.651,38.218,38.218,0,0,1,14.2-21q10.566-7.906,26.124-7.909a27.3,27.3,0,0,1,12.057,2.464,21.559,21.559,0,0,1,8.1,6.612,32.778,32.778,0,0,1,4.862,10.825,80.55,80.55,0,0,1,2.463,13.743q0.647,7.068.648,16.659v76.362h21.651V357.349a161.208,161.208,0,0,1,1.167-19.965q4.278-13.872,14.326-21.521t24.308-7.65a27.029,27.029,0,0,1,12.447,2.658,21.62,21.62,0,0,1,8.1,6.871,32.785,32.785,0,0,1,4.537,11.474,93.2,93.2,0,0,1,2.074,14.261q0.453,7,.454,17.373v74.028H548.93Zm106.214-83.492H580.079q1.815-20.353,12.317-32.088t27.1-11.733q16.593,0,26.124,11.344t9.528,32.477h0Zm18.021,73.25-3.37-17.5q-22.689,11.929-45.247,11.927-20.485,0-32.606-13.548t-12.511-37.792h97.624q0-1.813.065-5.964t0.064-5.7q0-30.207-15.492-48.293t-41.941-18.086q-28.134.389-45.376,20.938t-17.243,53.609q0,34.226,17.826,53.933T623.77,437.86q27.743,0,49.395-13.224h0Zm94.073,2.4q13.87-10.822,14.131-30.531,0-16.206-8.946-25.735t-30.467-16.53q-6.483-2.073-10.76-3.63-16.725-5.7-22.3-10.113t-5.575-12.7a17.362,17.362,0,0,1,7.714-15.1q7.712-5.377,21.327-5.38,17.5,0,37.6,8.3l6.353-16.594q-19.836-9.335-43.95-9.335-23.337,0-36.755,11.02T682.19,328.438q0.126,13.745,8.1,22.948t26.643,15.428l10.76,3.759q19.705,6.743,26.448,12.187t6.742,14.909q-0.909,22.3-32.542,22.3-20.874,0-42.523-11.539L683.1,426.71q7.649,4.929,19.9,8.038a108.582,108.582,0,0,0,26.772,3.112Q753.364,437.86,767.238,427.034Zm96.386,7.714-0.907-17.113q-14.264,2.076-18.54,2.074-11.929,0-16.854-6.612T822.4,390.28V308.732h39.543V292.656H822.4V259.6l-14.261.519-7.389,32.541-20.1,1.815-0.907,14.261h21.132v85.437q0.518,22.82,9.335,33.06t29.818,10.242q8.169,0,23.6-2.723h0Zm5.092-27.874a41.265,41.265,0,0,0,8.492,14.456,46.125,46.125,0,0,0,12.835,9.594,60.92,60.92,0,0,0,15.752,5.51,93.434,93.434,0,0,0,35.329,0,61.536,61.536,0,0,0,15.622-5.445,43.668,43.668,0,0,0,12.641-9.529A42.416,42.416,0,0,0,977.749,407a57.792,57.792,0,0,0,3.111-19.577V292.656H959.08v95.031q0,17.763-9.4,25.151t-26.253,7.39a60.491,60.491,0,0,1-14.456-1.556,32.672,32.672,0,0,1-11.279-5.121,22.4,22.4,0,0,1-7.649-10.047,41.734,41.734,0,0,1-2.658-15.817V292.656h-21.78v94.771A57.366,57.366,0,0,0,868.716,406.874Zm161.664,5.057a40.8,40.8,0,0,1-13.16-19.447q-4.08-12.186-4.09-28.782a92.289,92.289,0,0,1,2.4-21.716,61.132,61.132,0,0,1,7.07-17.567,33.173,33.173,0,0,1,12.32-11.927,35.466,35.466,0,0,1,17.63-4.279q22.425,0,32.47,14.586t10.05,43.366q0,25.543-10.44,39.283t-31.82,13.743Q1039.445,419.191,1030.38,411.931Zm67.93,22.947h18.41V236.13l-21.39,1.3v62.619l0.39,12.316q-6.225-10.371-18.73-16.53a59.617,59.617,0,0,0-26.65-6.158q-27.225,0-43.43,20.29t-16.2,53.22q0,34.486,15.944,54.516t44.08,20.03a53.6,53.6,0,0,0,26.06-6.353,50.866,50.866,0,0,0,18.67-17.113Z"/>
      <path id="Beta_copy_3" data-name="Beta copy 3" class="cls-2" d="M1192.41,419.427q11.1,0,16.34,3.175t5.24,11.075q0,7.588-4.85,11.177t-14.56,3.588h-15.96V419.427h13.79Zm-13.79-32.475h12.5q10.275,0,15.15,2.711t4.88,9.887q0,7.125-4.08,9.912t-12.08,2.788h-16.37v-25.3Zm-8.93,68.822h26.64q13.425,0,20.22-5.679t6.78-16.057a19.122,19.122,0,0,0-3.97-12.185q-3.975-5.058-11.67-6.5a20.493,20.493,0,0,0,5.86-2.917,16.683,16.683,0,0,0,3.8-3.666,15.4,15.4,0,0,0,2.03-4.052,19.666,19.666,0,0,0,.93-3.64,22.76,22.76,0,0,0,.18-2.866q0-9.808-7.09-14.3-7.11-4.491-21.82-4.492h-21.89v76.36Zm95.05-33.249h-29.89q0.72-8.106,4.9-12.779a13.83,13.83,0,0,1,10.79-4.672,12.87,12.87,0,0,1,10.41,4.518q3.795,4.518,3.79,12.933h0Zm7.18,29.17-1.35-6.97a38.419,38.419,0,0,1-18.01,4.75q-8.16,0-12.99-5.4t-4.98-15.05h38.88c0-.482,0-1.273.02-2.375s0.03-1.859.03-2.272q0-12.029-6.17-19.232t-16.7-7.2q-11.2.155-18.07,8.338t-6.87,21.349q0,13.63,7.1,21.478t19.44,7.847a36.99,36.99,0,0,0,19.67-5.266h0Zm33.07,4.027-0.36-6.815a67.635,67.635,0,0,1-7.38.826q-4.755,0-6.72-2.633t-1.96-9.087V405.539h15.75v-6.4h-15.75V385.971l-5.68.207-2.94,12.959-8,.722-0.36,5.68H1280v34.023q0.21,9.088,3.72,13.166t11.87,4.078a58.623,58.623,0,0,0,9.4-1.084h0Zm11.68-8.054q-2.685-2.323-2.68-6.867,0-5.935,4.41-8.622t15.62-3.665c0.58-.034,1.83-0.138,3.74-0.31s2.95-.258,3.12-0.258V437.5a15.134,15.134,0,0,1-6.01,9.113,17.982,17.982,0,0,1-10.82,3.381A10.905,10.905,0,0,1,1316.67,447.668Zm32.84,8.106V418.291q0-11.1-4.68-15.721-4.665-4.62-15.25-4.621a44.451,44.451,0,0,0-10.56,1.265,35.367,35.367,0,0,0-8.96,3.382q0.06,0.1,1.14,3.072c0.72,1.979,1.17,3.175,1.34,3.588a38.472,38.472,0,0,1,16.88-4.13c4,0,6.92.964,8.78,2.891s2.79,4.888,2.79,8.88v5.008c-1.14.1-2.85,0.25-5.14,0.439s-4,.336-5.14.439q-12.39,1.033-18.97,5.214t-6.58,12.856q0,7.8,4.82,11.952t12.78,4.156a24.055,24.055,0,0,0,9.71-1.807,30.174,30.174,0,0,0,8.83-6.5q0.72,3.822,1.5,7.125h6.71Z"/>
    </g>
  </g>
</svg>
