<svg xmlns="http://www.w3.org/2000/svg" width="1366" height="768" viewBox="0 0 1366 768">
  <defs>
    <style>
      .cls-1 {
        fill: #333;
      }

      .cls-1, .cls-2 {
        fill-rule: evenodd;
      }

      .cls-2 {
        fill: #3c9;
        mix-blend-mode: darken;
      }
    </style>
  </defs>
  <g id="Artboard_1" data-name="Artboard 1">
    <g>
      <path id="Homestud" class="cls-1" d="M260.406,259.415H241.315v70.073H153.7V259.415H134.6v163.21H153.7V346.262h87.619v76.363h19.091V259.415ZM303.04,327.5q9.49-13.02,27.588-13.022,18.648,0,27.754,12.746t9.1,34.926q0,21.851-9.215,34.761t-27.312,12.911q-18.32,0-27.864-12.966t-9.545-34.485Q293.55,340.524,303.04,327.5Zm68.749-10.98Q357,299.034,331.07,299.031q-26.376,0-41.493,17.436t-15.118,45.685q0,27.7,15.063,45.355t40.554,17.656q26.486,0,41.493-17.491t15.007-45.63Q386.576,334.013,371.789,316.522Zm197.656,106.1V344.717q0-22.62-9.435-34.154t-29.629-11.532q-27.258,0-40.5,21.519a34.684,34.684,0,0,0-2.759-5.9,28.366,28.366,0,0,0-4.635-5.738,30.946,30.946,0,0,0-6.787-5.021,38.735,38.735,0,0,0-9.49-3.476,52.635,52.635,0,0,0-12.414-1.38,46.052,46.052,0,0,0-23.064,5.739,44.461,44.461,0,0,0-15.67,14.125l-2.317-17.326H397.3q0,7.506.22,121.056h18.429V357.849a159.281,159.281,0,0,1,.993-18.429,32.528,32.528,0,0,1,12.084-17.877q8.992-6.731,22.236-6.731a23.244,23.244,0,0,1,10.262,2.1,18.357,18.357,0,0,1,6.9,5.628,27.88,27.88,0,0,1,4.138,9.214,68.431,68.431,0,0,1,2.1,11.7q0.55,6.015.552,14.18v65h18.429v-65.99a137.248,137.248,0,0,1,.993-16.994q3.64-11.808,12.194-18.319t20.69-6.51a23,23,0,0,1,10.594,2.262,18.38,18.38,0,0,1,6.9,5.848,27.879,27.879,0,0,1,3.862,9.766,79.488,79.488,0,0,1,1.766,12.139q0.385,5.96.386,14.787v63.011h18.429Zm90.407-71.066H595.958q1.545-17.324,10.484-27.312t23.063-9.987q14.124,0,22.236,9.656t8.111,27.643h0Zm15.339,62.348-2.869-14.9q-19.312,10.154-38.513,10.152-17.437,0-27.753-11.532t-10.649-32.167H678.5q0-1.543.055-5.076t0.056-4.856q0-25.71-13.187-41.106t-35.7-15.394q-23.948.332-38.623,17.822t-14.677,45.63q0,29.133,15.173,45.907t41.548,16.773q23.613,0,42.044-11.256h0Zm80.071,2.042q11.808-9.213,12.029-25.988,0-13.793-7.615-21.905t-25.932-14.07q-5.52-1.764-9.159-3.09-14.236-4.854-18.981-8.607t-4.745-10.814a14.777,14.777,0,0,1,6.566-12.856q6.564-4.578,18.153-4.58,14.9,0,32,7.063l5.407-14.125a86.76,86.76,0,0,0-37.409-7.946q-19.863,0-31.285,9.38t-11.421,23.615q0.108,11.7,6.9,19.533t22.677,13.131l9.159,3.2q16.773,5.739,22.512,10.373t5.738,12.69q-0.773,18.981-27.7,18.981-17.769,0-36.2-9.822l-2.318,15.56a57.482,57.482,0,0,0,16.939,6.842,92.487,92.487,0,0,0,22.788,2.648Q743.455,425.163,755.262,415.949Zm82.042,6.566-0.772-14.567a144.094,144.094,0,0,1-15.781,1.766q-10.154,0-14.345-5.628t-4.194-19.422V315.253H835.87V301.569H802.212V273.43l-12.138.441-6.29,27.7-17.105,1.545-0.772,12.139h17.987v72.722q0.439,19.423,7.945,28.139t25.381,8.718q6.952,0,20.084-2.317h0Zm4.334-23.726a35.127,35.127,0,0,0,7.228,12.3,39.248,39.248,0,0,0,10.925,8.166,51.819,51.819,0,0,0,13.408,4.69,79.486,79.486,0,0,0,30.071,0,52.3,52.3,0,0,0,13.3-4.635,37.135,37.135,0,0,0,10.759-8.11,36.1,36.1,0,0,0,7.118-12.305,49.169,49.169,0,0,0,2.648-16.663V301.569H918.553v80.888q0,15.12-8,21.408t-22.346,6.29a51.459,51.459,0,0,1-12.3-1.324,27.812,27.812,0,0,1-9.6-4.359,19.068,19.068,0,0,1-6.511-8.552,35.509,35.509,0,0,1-2.262-13.463V301.569H838.99v80.667A48.84,48.84,0,0,0,841.638,398.789Zm137.6,4.3a34.738,34.738,0,0,1-11.2-16.553q-3.476-10.371-3.476-24.5a78.546,78.546,0,0,1,2.042-18.484,51.957,51.957,0,0,1,6.014-14.953A28.309,28.309,0,0,1,983.1,318.453a30.217,30.217,0,0,1,15.008-3.641q19.1,0,27.64,12.414t8.56,36.913q0,21.741-8.89,33.436t-27.089,11.7Q986.964,409.272,979.24,403.093Zm57.82,19.532h15.67V253.456l-18.2,1.1v53.3l0.33,10.484q-5.295-8.827-15.95-14.07a50.7,50.7,0,0,0-22.676-5.242q-23.174,0-36.968,17.27t-13.794,45.3q0,29.355,13.574,46.4t37.519,17.05a45.685,45.685,0,0,0,22.185-5.407,43.36,43.36,0,0,0,15.89-14.567Z"/>
      <path id="Beta" class="cls-2" d="M1087.38,448.625q9.105,0,13.5-3.9,4.38-3.9,4.39-10.828a12.986,12.986,0,0,0-2.92-8.473,12.716,12.716,0,0,0-8.4-4.4,14.8,14.8,0,0,0,3.27-1.423,13.768,13.768,0,0,0,2.34-1.706,8.464,8.464,0,0,0,1.53-1.986,16.438,16.438,0,0,0,.93-1.916,8.4,8.4,0,0,0,.44-1.916c0.09-.761.14-1.271,0.16-1.529s0.01-.645.01-1.16q0-6.609-4.48-9.844t-14.22-3.235h-14.27v52.313h17.72Zm-13.22-25.559h10.02q8.4,0,12.34,2.373t3.93,8.456q0,11.214-14.24,11.214h-12.05V423.066Zm0-23.1h9.56q7.35,0,10.74,2.127t3.39,7.611a12.923,12.923,0,0,1-.82,4.939,6.621,6.621,0,0,1-2.47,3.059,10.516,10.516,0,0,1-3.63,1.494,23.6,23.6,0,0,1-4.79.422h-11.98V399.969Zm63.49,45.914-0.74-3.27a34.393,34.393,0,0,1-5.8,2.5,21.832,21.832,0,0,1-6.54.879,11.337,11.337,0,0,1-9.28-4.342q-3.525-4.341-3.59-11.759h26.82c0-.258.01-0.709,0.02-1.354s0.02-1.072.02-1.283q0-8.156-4.11-13.008a13.6,13.6,0,0,0-10.9-4.851,15.128,15.128,0,0,0-11.87,5.8q-4.59,5.627-4.59,14.45,0,9.141,4.7,14.484t12.67,5.344a24.719,24.719,0,0,0,13.19-3.586h0Zm-22.19-29.145a9.826,9.826,0,0,1,7.95-3.656,9.305,9.305,0,0,1,7.63,3.428q2.775,3.428,2.77,9.861h-21.93A17.282,17.282,0,0,1,1115.46,416.738Zm43.15,31.852-0.18-3.375a23.034,23.034,0,0,1-5.41.808q-3.375,0-4.71-1.388t-1.34-5.467V413.293h11.25v-3.2h-11.25v-8.965l-3.06.211-1.16,8.824-5.2.492-0.32,2.637h5.45v26.789q0,4.957,2.25,7.154t7.11,2.2a36.522,36.522,0,0,0,6.57-.844h0Zm24.9-5.625q0,0.071.33,2.461t0.51,3.2h3.41V422.891q0-7.559-3.02-10.53t-9.95-2.97a26.333,26.333,0,0,0-6.89.949,20.263,20.263,0,0,0-5.7,2.355q0.21,0.633.72,1.811c0.34,0.785.56,1.3,0.65,1.529a23.363,23.363,0,0,1,11.43-2.918c2.97,0,5.14.745,6.48,2.233s2.03,3.709,2.03,6.662V426.3c-1.46.117-3.68,0.269-6.68,0.457a46.071,46.071,0,0,0-7.4,1.09,22.113,22.113,0,0,0-5.66,2.162,9.7,9.7,0,0,0-3.78,3.621,10.228,10.228,0,0,0-1.3,5.256q0,5.1,3.27,7.84a13.089,13.089,0,0,0,8.71,2.742,14.74,14.74,0,0,0,12.84-6.5h0Zm-18.34,1.265a6.434,6.434,0,0,1-2.12-5.273,6.894,6.894,0,0,1,3.33-6.328q3.345-2.039,11.92-2.813,0.045,0,5.1-.421v6.574a12.431,12.431,0,0,1-4.59,7.365,12.878,12.878,0,0,1-8,2.654A8.573,8.573,0,0,1,1165.17,444.23Z"/>
    </g>
  </g>
</svg>
